<svg id="avatar" xmlns="http://www.w3.org/2000/svg" viewBox="0 0 96.1 144.8"><title>avatar</title><path d="M32.7,139.5,22.2,128.9l-6.1-8.4L9.5,103.3,8.9,76.1,6.5,68l-2-22L0,41.1l5.1-2.2L2.2,32l5.2,1.1,3.7-12.5,11.4-5.2,5.4-7.1,3.5,3.5,10.7-10,4.7,7L59,0l-.9,9.3L68.5,3.5l.2,3.2a1.66,1.66,0,0,0,.5,1.2L80.5,19.7l7.3-2.1V24l8.3,15.1L95,55.3l-3.2,14-1.7-5.6-3.5-9.2-2.6-2,.8-3.7-3.2-3.7,3.6-1.4-4.7-7.3L61.9,31.2l-4.5,4.9L40.1,29.8l-22,6.3L20,48.5,11.1,59.4l-.7,11.3h.2c2.6-.2,3.9-.2,4.1-.2l5.4-.9c7.1-1.6,19-.7,21.9-.3a30.1,30.1,0,0,1,4.1.9,44,44,0,0,1,5.1-.5h.2c.8,0,4.3.4,4.9.5.9-.2,2-.3,2.8-.4,4.5-.6,15.2-1.4,23.3.6l5.4,1a2.41,2.41,0,0,1,.8.6l-.1,2.8-.8.6c-.6.1-1.1,1.1-1.5,2.5V78c-.1.7-.3,1.5-.4,2.2l-.2.8c-.8,3.8-2,5.2-5.2,5.9-4.3.9-15,1.1-18.5.2-3-.7-5.1-1.2-6.3-4.5a36,36,0,0,1-1.3-7.3,9.67,9.67,0,0,0-.4-2.9c-.4-.5-1.2-.7-2.7-.7h-.4a4.65,4.65,0,0,0-2.3.6A6.46,6.46,0,0,0,48,75a33.92,33.92,0,0,1-1.3,7.2c-1.2,3.3-3.5,3.8-6.1,4.4A57.34,57.34,0,0,1,22,86c-3.2-.7-4.4-2.2-5.2-6l-.2-.8c-.1-.7-.3-1.4-.4-2.2v-.1c-.2-.7-.7-2.3-1.4-2.4l-4.4-1.1h-.2l-.1,1.7.6,26.7,9.2,18.8,9.8,6.6.2-19.6,7.6-7.4,8.1-3.1,10.4.4,8.3,3.2,6.1,7.2,2.3,19.9,9.2-7.1,8.2-19.4,1.3-18.9.1,8.4.2,12.8L84.8,121,71.7,137.2l-17.2,7.6-8.9-.9ZM34,108.4l-.8,9L34.9,131l15-3-3.7-8.2,10.4.5-5,7.8L68.2,131l.9-13.4-1.4-8.3L58,103.6l-6.6,1.2L46,103.6ZM61.2,71.3c-4.1.5-5.3.6-5.1,4.2a26.84,26.84,0,0,0,1.1,6.3c1,2.6,2.8,3,5.3,3.6,5.4,1.2,14.7.4,17.3-.2s3.7-1.6,4.4-4.7l.2-.8a14.15,14.15,0,0,0,.5-4.6c-.4-2.5-2-2.8-4.2-3.2l-.7-.1C71.7,70,61.2,71.3,61.2,71.3Zm-39.1-.1c-2,.5-3.8.7-4.2,3.2a14.15,14.15,0,0,0,.5,4.6l.2.8c.7,3.2,1.6,4.2,4.4,4.8a58.4,58.4,0,0,0,17.2.5c2.5-.5,4.4-.9,5.4-3.5a33.38,33.38,0,0,0,1.2-6.3c.2-3.6-1.1-3.7-5.1-4.3C41.6,71,28.8,69.6,22.1,71.2Z"/></svg>
